<svg width="94" height="32" viewBox="0 0 94 32" fill="none" xmlns="http://www.w3.org/2000/svg">
<rect width="94" height="32" rx="16" fill="#EF4E16"/>
<path d="M21.66 24.32C18.84 24.32 17.66 22.84 17.36 20.84H18.98C19.36 22.22 20.5 22.78 21.68 22.7C23.64 22.56 24.72 21.38 25.14 18.64C25.46 16.6 25.4 15.44 25.4 15.44C25.4 15.44 24.72 17.72 21.2 17.72C17.78 17.72 16.74 14.6 16.74 12.92C16.74 9.18 19.18 7.54 21.16 7.48C24.1 7.42 26.96 8.64 26.96 15.22C26.96 18.08 26.54 20.32 25.74 21.86C24.86 23.52 23.54 24.32 21.66 24.32ZM21.38 16.12C23.64 16.12 25.02 14.8 25.06 13.2C25.14 10.3 23.98 9.04 21.28 9.18C19.2 9.26 18.16 11.08 18.28 13.1C18.38 14.68 19.48 16.12 21.38 16.12ZM34.7164 7.48C38.7164 7.48 40.8364 10.64 40.8364 15.9C40.8364 21.26 38.7164 24.32 34.7164 24.32C30.7564 24.32 28.5964 21.26 28.5964 15.9C28.5964 10.72 30.7364 7.48 34.7164 7.48ZM34.7164 22.68C37.2764 22.68 39.1964 20.98 39.1964 15.9C39.1964 10.9 37.2764 9.12 34.7164 9.12C32.2164 9.12 30.2364 10.94 30.2364 15.9C30.2364 21 32.2164 22.68 34.7164 22.68ZM47.1967 7.48C50.8167 7.48 52.4367 9.58 52.4367 12.38C52.4367 14.92 50.9967 16.52 48.0167 17.2C45.2167 17.86 43.9367 17.48 43.9367 22.38H52.6567V24L42.2967 24C42.2967 23.18 42.2767 23.3 42.2767 22.38C42.2767 17.08 43.7567 16.48 47.4167 15.66C50.3767 15 50.7767 13.7 50.7767 12.06C50.7767 10.54 49.6567 9.12 47.5767 9.12C45.6767 9.12 43.6567 9.82 43.4567 11.94H41.8367C41.9767 9.46 43.8967 7.48 47.1967 7.48ZM63.7228 24H53.8628V22.36L58.4028 22.38V9.7L54.1228 12.48L54.1428 10.6L58.4428 7.82H60.1028V22.36H63.7228V24ZM70.7711 7.48C74.7711 7.48 76.8911 10.64 76.8911 15.9C76.8911 21.26 74.7711 24.32 70.7711 24.32C66.8111 24.32 64.6511 21.26 64.6511 15.9C64.6511 10.72 66.7911 7.48 70.7711 7.48ZM70.7711 22.68C73.3311 22.68 75.2511 20.98 75.2511 15.9C75.2511 10.9 73.3311 9.12 70.7711 9.12C68.2711 9.12 66.2911 10.94 66.2911 15.9C66.2911 21 68.2711 22.68 70.7711 22.68Z" fill="#181818"/>
</svg>
