<svg width="138" height="79" viewBox="0 0 138 79" fill="none" xmlns="http://www.w3.org/2000/svg">
<path d="M79.9606 45.8957C92.2948 40.8118 124.237 40.5229 137.996 39.9297C123.176 39.2871 87.0724 39.2947 77.2662 33.0206C83.3578 24.4536 89.2225 17.0008 94.8152 10.5328C88.4517 16.0768 81.1434 21.8794 72.7581 27.9025C68.7978 21.3737 68.9565 13.4569 68.6807 0C68.4011 13.6546 67.6906 21.0048 63.2618 27.393C54.5402 21.2482 48.1351 16.4761 41.3936 10.434C47.436 17.2404 52.3296 23.6057 58.5042 32.3932C48.4109 38.5456 14.6355 39.2985 0 39.9297C13.6228 40.5153 44.1937 40.6407 56.5506 45.5459C51.2677 52.7402 46.7331 58.1549 41.3936 64.1894C47.6551 58.5922 53.7315 54.3752 61.5802 48.9719C67.9325 56.0901 68.3557 63.3567 68.6769 78.9962C69.0019 63.3072 68.9263 56.2422 75.3012 49.1202C82.6095 54.3372 89.1432 59.2576 94.8152 64.1856C90.0955 58.7177 85.0923 52.7364 79.9643 45.8919L79.9606 45.8957Z" fill="#EF4E16"/>
</svg>
