<svg width="91" height="90" viewBox="0 0 91 90" fill="none" xmlns="http://www.w3.org/2000/svg">
<rect width="91" height="90" rx="45" fill="#7F7F7F"/>
<path d="M45.0546 46.222L45.8526 46.2587L47.6529 70L41.621 69.7795L45.0546 46.222Z" fill="#181818"/>
<path d="M44.4235 45.7442L45.036 46.222L32.3968 66.4719L27.6455 62.7784L44.4235 45.7442Z" fill="#181818"/>
<path d="M44.1823 44.9724L44.405 45.7258L22.1518 54.7483L20.5 48.9967L44.1823 44.9724Z" fill="#181818"/>
<path d="M44.4607 44.2007L44.1823 44.9357L20.8341 39.2944L22.8942 33.6898L44.4607 44.2007Z" fill="#181818"/>
<path d="M45.1288 43.7413L44.4792 44.1823L28.9261 26.0272L33.9373 22.6828L45.1288 43.7413Z" fill="#181818"/>
<path d="M45.9454 43.7596L45.1474 43.7413L43.3656 20L49.379 20.2205L45.9454 43.7596Z" fill="#181818"/>
<path d="M46.595 44.2558L45.964 43.778L58.6218 23.5281L63.3545 27.2032L46.595 44.2558Z" fill="#181818"/>
<path d="M46.8177 45.0276L46.595 44.2742L68.8482 35.2517L70.5 41.0033L46.8177 45.0276Z" fill="#181818"/>
<path d="M46.5579 45.7993L46.8177 45.0459L70.1845 50.7056L68.1058 56.3102L46.5579 45.7993Z" fill="#181818"/>
<path d="M45.8712 46.2587L46.5393 45.8177L62.0739 63.9728L57.0813 67.2988L45.8712 46.2587Z" fill="#181818"/>
</svg>
