<svg width="106" height="106" viewBox="0 0 106 106" fill="none" xmlns="http://www.w3.org/2000/svg">
<path d="M6.46516 29.7371C14.3475 28.7688 22.7825 28.0019 31.6362 27.5541C38.2402 27.2071 45.0507 27 52.0342 27M6.46516 29.7371C2.97058 36.7395 1 44.6095 1 53M6.46516 29.7371C15.0397 12.6818 32.6689 1 53 1M52.0287 79C45.0451 79 38.2346 78.7929 31.6306 78.4459C22.7825 77.9925 14.3419 77.2312 6.45958 76.2629M99.5348 76.2629C91.6525 77.2312 83.2175 77.9981 74.3638 78.4459C67.7933 78.7929 60.9493 79 53.9658 79M99.5348 76.2629C103.029 69.2605 105 61.3569 105 53C105 44.6431 103.029 36.7395 99.5348 29.7371M99.5348 76.2629C90.9938 93.3182 73.3646 105 53 105C32.6354 105 15.0397 93.3182 6.46516 76.2629C2.97058 69.2605 1 61.3905 1 53M53.9658 27C60.9493 27 67.7933 27.2071 74.3638 27.5541M74.3638 27.5541C83.2175 28.0019 91.6525 28.7688 99.5348 29.7371M74.3638 27.5541C70.1491 11.7135 62.1607 1 53 1M74.3638 27.5541C76.3009 34.87 77.4062 43.2605 77.4732 52.1996M99.5348 29.7371C90.9603 12.6818 73.3311 1 53 1M1 53H12.2039M53 1C43.8393 1 35.8509 11.7135 31.6306 27.5597C29.6991 34.87 28.5882 43.2605 28.5212 52.2052M93.7961 53C87.3652 53.2071 82.0061 53.3806 77.4788 53.7948C60.4023 55.3229 55.6293 59.8288 53.9713 79C53.4187 85.6889 53.2121 94.2194 53.0056 105C52.799 94.2194 52.5925 85.6889 52.0398 79C50.3819 59.8288 45.6089 55.3229 28.5324 53.7948C24.005 53.3806 18.6459 53.2071 12.215 53C18.6459 52.7929 24.005 52.6194 28.5324 52.2052C45.6089 50.7163 50.3819 46.2103 52.0398 27C52.5925 20.3111 52.799 11.7806 53.0056 1C53.2121 11.7806 53.4187 20.3111 53.9713 27C55.6293 46.2047 60.4023 50.7107 77.4788 52.2052C82.0061 52.6194 87.3652 52.7929 93.7961 53ZM93.7961 53H104.994M28.5212 53.7948C28.5882 62.7731 29.6991 71.1636 31.6306 78.4403C35.8509 94.2809 43.8337 104.994 52.9944 104.994C62.1551 104.994 70.1435 94.2809 74.3582 78.4403C76.2953 71.158 77.4006 62.7731 77.4676 53.7948" stroke="#F4F4F4" stroke-linecap="round" stroke-linejoin="round"/>
</svg>
