<svg width="272" height="83" viewBox="0 0 272 83" fill="none" xmlns="http://www.w3.org/2000/svg">
<rect width="272" height="83" rx="24" fill="#7F7F7F"/>
<path d="M96.983 57.5V46.7992H75.7041V25.5271H65V57.5H96.983Z" fill="#181818"/>
<path d="M170.107 46.7722L138.124 46.7722V57.4729L170.107 57.4729V46.7722Z" fill="#181818"/>
<path d="M175.017 36.2279H189.951L175.017 45.6004V57.5H207V46.7992H192.066L207 37.4267V25.5271H175.017V36.2279Z" fill="#181818"/>
<path d="M148.828 34.1715L157.859 41.4864H170.161L170.118 41.4508V25.5L159.414 25.5V32.7799L150.428 25.5H138.124V41.4864L148.828 41.4864V34.1715Z" fill="#181818"/>
<path d="M112.596 33.5002V25.5271H101.892V57.5H112.596V44.2003H123.171V49.5065H133.875V33.5002H112.596Z" fill="#181818"/>
<path d="M96.9831 25.5271H81.0186V41.4865H96.9831V25.5271Z" fill="#181818"/>
<rect x="9" y="9" width="254" height="65" rx="15" stroke="#181818" stroke-width="2"/>
</svg>
