<svg width="123" height="123" viewBox="0 0 123 123" fill="none" xmlns="http://www.w3.org/2000/svg">
<rect width="123" height="123" rx="24" fill="#EF4E16"/>
<path d="M61.5 46.8532C76.5545 46.8532 90.9436 44.2329 102.936 39.3797L100.123 33C89.3255 37.3215 75.9723 39.881 61.5076 39.881C47.0428 39.881 33.6821 37.3291 22.8846 33.0076L20.0718 39.3873C32.064 44.2405 46.4531 46.8608 61.5076 46.8608L61.5 46.8532Z" fill="black"/>
<path d="M77.8702 53.9772C87.6166 52.7392 96.8263 50.4152 105 47.0962L102.936 42.4253C90.9436 47.2785 76.5545 49.8987 61.5 49.8987C46.4455 49.8987 32.0564 47.2785 20.0642 42.4253L18 47.0962C26.1662 50.4152 35.3758 52.7468 45.1298 53.9772V64.2228H39.7538V67.238H45.1298V90H53.1448V67.238H69.8552V90H77.8702V67.238H83.2462V64.2228H77.8702V53.9772ZM53.1448 64.2228V54.7367C55.9047 54.9114 58.6872 55.0025 61.5 55.0025C64.3128 55.0025 67.0953 54.9114 69.8552 54.7367V64.2228H53.1448Z" fill="black"/>
<rect x="9" y="9" width="105" height="105" rx="15" stroke="#181818" stroke-width="2"/>
</svg>
