<svg width="356" height="179" viewBox="0 0 356 179" fill="none" xmlns="http://www.w3.org/2000/svg">
<path d="M176.353 45.25C173.522 77.9412 165.399 85.6038 136.35 88.1456M176.353 45.25H176.335C164.456 45.25 152.854 45.6025 141.623 46.1962C126.562 46.9569 112.203 48.2557 98.7885 49.9069M176.353 45.25C173.541 77.9412 165.418 85.6038 136.35 88.1456M176.353 45.25C177.297 33.8582 177.648 19.3494 178 1M136.35 88.1456C128.634 88.8506 119.512 89.1475 108.577 89.5M136.35 88.1456C128.634 88.8506 119.53 89.1475 108.577 89.5M108.577 89.5H1M108.577 89.5C119.512 89.8525 128.634 90.1494 136.35 90.8544C165.399 93.4519 173.522 101.114 176.353 133.75M1 89.5C1 72.2082 40.7815 57.1613 98.7885 49.9069M1 89.5C1 106.847 40.7815 121.839 98.807 129.093M1 89.5H108.558C119.512 89.8525 128.615 90.1494 136.331 90.8544C165.399 93.4519 173.522 101.114 176.335 133.75H176.353M98.7885 49.9069C113.387 20.8893 143.399 1 178 1M355 89.5C355 106.847 315.218 121.839 257.211 129.093C243.797 130.744 229.438 132.043 214.377 132.804C203.201 133.397 191.544 133.75 179.665 133.75C182.496 101.114 190.619 93.4519 219.669 90.8544C227.385 90.1494 236.507 89.8525 247.442 89.5M355 89.5H247.442M355 89.5C355 72.2082 315.237 57.1613 257.211 49.9069C243.797 48.2557 229.438 46.9569 214.377 46.1962C203.201 45.6025 191.544 45.25 179.665 45.25C182.478 77.9412 190.601 85.6038 219.669 88.1456C227.385 88.8506 236.488 89.1475 247.442 89.5M257.193 129.093C242.668 158.129 212.656 178 178 178M178 178C143.344 178 113.387 158.111 98.807 129.093M178 178C178.352 159.651 178.703 145.142 179.647 133.75C182.459 101.114 190.582 93.4519 219.65 90.8544C227.366 90.1494 236.47 89.8525 247.423 89.5C236.488 89.1475 227.366 88.8506 219.65 88.1456C190.601 85.6038 182.478 77.9412 179.647 45.25C178.703 33.8582 178.352 19.3494 178 1M178 178C177.648 159.651 177.297 145.142 176.353 133.75M178 178C162.42 178 148.821 159.762 141.642 132.804M178 178C193.58 178 207.179 159.762 214.358 132.804M98.807 129.093C112.222 130.744 126.58 132.043 141.642 132.804M178 1C212.601 1 242.613 20.8893 257.193 49.9069M178 1C162.42 1 148.821 19.2381 141.642 46.1962M178 1C193.58 1 207.179 19.2381 214.358 46.1962M176.353 133.75C164.474 133.75 152.873 133.397 141.642 132.804" stroke="#F4F4F4" stroke-miterlimit="10"/>
</svg>
