<svg width="38" height="111" viewBox="0 0 38 111" fill="none" xmlns="http://www.w3.org/2000/svg">
<path d="M19.4971 8.94238C20.6165 18.5622 21.5412 28.3453 22.2227 37.8516C22.7919 45.8451 28.041 52.4553 35.1865 55.0293L36.4941 55.501L35.1865 55.9707C28.2488 58.4642 23.1059 64.7603 22.2881 72.4033L22.2227 73.1475C21.5574 82.6548 20.6165 92.4384 19.4971 102.058L19 106.325L18.5029 102.058C17.3835 92.4378 16.4588 82.6547 15.7773 73.1484C15.2081 65.1707 9.95802 58.5445 2.8125 55.9707L1.50586 55.499L2.81348 55.0293C9.97509 52.4553 15.224 45.8292 15.7773 37.8525L16.04 34.2754C16.6812 25.902 17.5235 17.3593 18.5029 8.94238L19 4.6748L19.4971 8.94238Z" stroke="#F4F4F4" stroke-miterlimit="10"/>
</svg>
