<svg width="226" height="139" viewBox="0 0 226 139" fill="none" xmlns="http://www.w3.org/2000/svg">
<path d="M13.5029 51.8696C14.6244 59.0281 18.6537 65.1647 24.3037 69.0894L24.8945 69.5005L24.3037 69.9106C18.6541 73.835 14.6245 79.9927 13.5029 87.1304L13.0078 90.2798L12.5146 87.1304C11.3932 79.9719 7.36479 73.8352 1.71484 69.9106L1.12402 69.5005L1.71484 69.0894C7.36442 65.165 11.3931 59.0072 12.5146 51.8696L13.0098 48.7202L13.5029 51.8696Z" stroke="#F4F4F4" stroke-miterlimit="10"/>
<path d="M113.497 8.71887C114.959 21.279 116.166 34.0522 117.056 46.464C117.803 56.9645 124.7 65.6482 134.087 69.0294L135.393 69.5001L134.086 69.9708C124.678 73.3522 117.783 82.056 117.056 92.5343V92.5353C116.187 104.948 114.958 117.722 113.497 130.281L113 134.549L112.504 130.281C111.042 117.721 109.834 104.948 108.944 92.5363V92.5353C108.196 82.0559 101.3 73.3519 91.913 69.9708L90.6063 69.4991L91.9139 69.0294C101.322 65.6481 108.217 56.9435 108.944 46.465C109.813 34.0521 111.042 21.2785 112.504 8.71887L113 4.45129L113.497 8.71887Z" stroke="#F4F4F4" stroke-miterlimit="10"/>
<path d="M213.485 51.8696C214.606 59.0281 218.636 65.1647 224.286 69.0894L224.877 69.5005L224.286 69.9106C218.636 73.835 214.607 79.9927 213.485 87.1304L212.99 90.2798L212.497 87.1304C211.375 79.9719 207.347 73.8352 201.697 69.9106L201.106 69.5005L201.697 69.0894C207.346 65.165 211.375 59.0072 212.497 51.8696L212.992 48.7202L213.485 51.8696Z" stroke="#F4F4F4" stroke-miterlimit="10"/>
</svg>
