<svg width="114" height="115" viewBox="0 0 114 115" fill="none" xmlns="http://www.w3.org/2000/svg">
<path d="M57.0029 88.9183C35.5094 88.9183 16.1488 82.2723 6.46846 71.5786C2.50323 67.1597 0.5 62.4285 0.5 57.4971C0.5 52.5656 2.55626 47.7755 6.44489 43.4391C16.1488 32.7159 35.5094 26.0699 57.0029 26.0699C78.4965 26.0699 97.8571 32.7159 107.532 43.4096C111.444 47.7637 113.5 52.6304 113.5 57.4912C113.5 62.3519 111.497 67.1538 107.555 71.5491C97.9043 82.2664 78.5377 88.9125 57.0029 88.9125V88.9183Z" stroke="#F4F4F4" stroke-miterlimit="10"/>
<path d="M79.2212 79.7153C64.0202 94.9163 45.6317 103.907 31.2261 103.183C25.293 102.858 20.5382 100.932 17.0502 97.4439C13.5623 93.9559 11.6297 89.1187 11.3116 83.3034C10.5928 68.8625 19.5837 50.4681 34.7788 35.273C49.974 20.0778 68.3625 11.0869 82.774 11.8057C88.6187 12.1179 93.5148 14.1035 96.9498 17.5443C100.438 21.0323 102.364 25.793 102.683 31.6907C103.437 46.0904 94.4457 64.4907 79.2153 79.7153H79.2212Z" stroke="#F4F4F4" stroke-miterlimit="10"/>
<path d="M88.4242 57.4971C88.4242 78.9906 81.7782 98.3512 71.0845 108.032C66.6656 111.997 61.9344 114 57.0029 114C52.0715 114 47.2814 111.944 42.945 108.055C32.2218 98.3512 25.5758 78.9906 25.5758 57.4971C25.5758 36.0035 32.2218 16.6429 42.9214 6.96845C47.2755 3.05626 52.1422 1 57.0029 1C61.8637 1 66.6656 3.00323 71.0609 6.94489C81.7782 16.5958 88.4242 35.9623 88.4242 57.4971Z" stroke="#F4F4F4" stroke-miterlimit="10"/>
<path d="M79.2212 35.2788C94.4163 50.4798 103.413 68.8683 102.688 83.2739C102.364 89.207 100.438 93.9618 96.9498 97.4498C93.5089 100.891 88.6246 102.87 82.8093 103.188C68.3683 103.907 49.974 94.9163 34.7788 79.7212C19.5837 64.526 10.5928 46.1375 11.3116 31.7261C11.6238 25.8813 13.6094 20.9852 17.0502 17.5502C20.5382 14.0623 25.2988 12.1356 31.1966 11.8175C45.5963 11.0633 63.9966 20.0543 79.2212 35.2847V35.2788Z" stroke="#F4F4F4" stroke-miterlimit="10"/>
</svg>
