<svg width="28" height="29" viewBox="0 0 28 29" fill="none" xmlns="http://www.w3.org/2000/svg">
<path d="M13.002 13.0285V8.66812H4.35154V0H0V13.0285H13.002Z" fill="#F4F4F4"/>
<path d="M13.002 23.6659H0V28.0263H13.002V23.6659Z" fill="#F4F4F4"/>
<path d="M14.998 19.3692H21.0689L14.998 23.1884V28.0373H28V23.6769H21.9291L28 19.8577V15.0088H14.998V19.3692Z" fill="#F4F4F4"/>
<path d="M4.35157 18.5312L8.02259 21.512H13.0241L13.0063 21.4975V14.9977H8.65479V17.9642L5.00175 14.9977H2.59072e-05V21.512H4.35157V18.5312Z" fill="#F4F4F4"/>
<path d="M19.3491 3.24893V0H14.9979V13.0285H19.3491V7.60908H23.6483V9.77127H27.9999V3.24893H19.3491Z" fill="#F4F4F4"/>
<path d="M13.002 0H6.51203V6.50324H13.002V0Z" fill="#F4F4F4"/>
</svg>
